<?xml version="1.0" encoding="UTF-8" standalone="no"?>
<!-- Created with Inkscape (http://www.inkscape.org/) -->

<svg
   width="210mm"
   height="80mm"
   viewBox="0 0 210 80"
   version="1.1"
   id="svg5"
   xmlns="http://www.w3.org/2000/svg"
   xmlns:svg="http://www.w3.org/2000/svg">
  <defs
     id="defs2" />
  <g
     id="layer1">
    <path
       id="rect30677"
       style="fill:#ffffff;fill-opacity:1;stroke:none;stroke-width:1.88976;stroke-linecap:round;stroke-linejoin:round;stroke-miterlimit:4;stroke-dasharray:none;stroke-opacity:1;paint-order:fill markers stroke"
       d="m 267.625,19.037109 c -0.0939,-0.0025 -0.16821,0.07047 -0.26172,0.07031 v -0.06836 c -0.0308,0.03039 -0.0614,0.06099 -0.0918,0.0918 -4.10323,0.02895 -7.86787,2.23899 -9.74414,5.84375 -1.60487,3.083324 -1.38321,6.90878 -0.16406,9.839844 l -0.0195,-0.03711 c 2.04516,5.336662 3.39447,11.40269 4.39648,17.761718 -10.58145,-19.942212 -31.17507,-32.896612 -58.06838,-32.896483 -0.0104,-1.7e-5 -0.0209,-1.7e-5 -0.0313,0 -40.85053,0.127952 -87.2968,22.574679 -124.876948,65.521484 -1.055206,1.15903 -1.943899,2.313883 -2.716797,3.873047 -0.78991,1.593449 -3.078235,3.529647 -0.267578,9.367188 0.584368,1.213667 1.791693,2.231773 3.015625,3.146483 -17.811553,18.7208 -33.078383,40.67647 -42.423828,65.3457 -17.907357,47.27019 -15.835529,90.61807 0.636718,116.93946 1.643857,2.62676 5.18471,4.8644 8.462891,5.06445 3.278177,0.1999 5.92594,-1.00546 7.873047,-2.68945 3.531381,-3.05412 4.643368,-9.14435 2.691406,-13.56446 l 0.101563,0.19532 c -2.361767,-5.71824 -4.087556,-12.15385 -5.203125,-19.0918 10.279619,20.87431 31.34969,34.45524 58.958986,34.45508 0.0104,2e-5 0.0208,2e-5 0.0312,0 38.1835,-0.11957 81.25325,-19.74493 117.40429,-57.37891 H 690.2168 c 45.76807,0 82.61328,-31.16731 82.61328,-69.88281 0,-38.7155 -36.84521,-69.884766 -82.61328,-69.884766 H 289.2793 c 2.2222,-26.219219 -2.28418,-49.61485 -12.62305,-66.886719 l -0.008,-0.0078 c -2.74277,-4.572051 -7.37523,-5.082371 -9.02344,-5.126953 z"
       transform="scale(0.26458333)" />
    <path
       style="color:#000000;-inkscape-font-specification:'Helvetica Neue Bold';fill:#017cde;stroke-linejoin:round;-inkscape-stroke:none;paint-order:markers stroke fill"
       d="m 168.00586,26.318359 c -0.56357,5.32e-4 -1.0571,0.378081 -1.20508,0.921875 l -4.72656,17.460938 c -0.21468,0.794643 0.3839,1.576285 1.20703,1.576172 h 4.25781 l -2.66406,4.005859 c -0.55133,0.830725 0.044,1.940939 1.04102,1.941406 h 3.3164 c 0.41865,-1.4e-4 0.80944,-0.20983 1.04102,-0.558593 l 3.67383,-5.535157 c -0.22562,0.57322 -0.53657,1.18281 -0.67579,1.697266 -0.53402,1.973447 -0.89139,4.605323 0.41797,6.917969 1.30937,2.312645 4.23863,3.876953 9.20117,3.876953 4.96254,0 8.42275,-1.503441 10.70508,-3.564453 2.28233,-2.061013 3.36832,-4.604678 3.90235,-6.578125 0.53402,-1.973457 0.89139,-4.605322 -0.41797,-6.917969 -1.30936,-2.312647 -4.23864,-3.876953 -9.20117,-3.876953 -4.94743,0 -8.3991,1.495522 -10.68164,3.546875 l 5.3125,-8.00586 c 0.54886,-0.830384 -0.0456,-1.937957 -1.04102,-1.939453 h -3.29102 c -0.41827,-2.91e-4 -0.80898,0.208624 -1.04101,0.556641 l -7.12695,10.716797 3.96875,-14.666016 c 0.21468,-0.794647 -0.3839,-1.576292 -1.20704,-1.576172 z m 18.97266,17.19336 c 1.85521,0 2.53037,0.547003 2.92382,1.273437 0.39346,0.726435 0.43147,1.895992 0.1211,3.042969 -0.31037,1.146961 -0.99036,2.426213 -2.01563,3.373047 -1.02527,0.946833 -2.36353,1.597656 -4.21875,1.597656 -1.85521,0 -2.52841,-0.548955 -2.92187,-1.275391 -0.39347,-0.726435 -0.43342,-1.89601 -0.12305,-3.042968 0.31038,-1.146974 0.9923,-2.426211 2.01758,-3.373047 1.02527,-0.946836 2.36158,-1.595703 4.2168,-1.595703 z"
       id="path45496" />
    <path
       style="color:#000000;-inkscape-font-specification:'Helvetica Neue Bold';fill:#005eae;stroke-width:2.5;stroke-linejoin:round;-inkscape-stroke:none;paint-order:markers stroke fill"
       d="m 174.47828,48.154473 c -0.98601,3.643729 -1.02097,9.219369 8.41153,9.219369 9.43248,0 12.41511,-5.57564 13.40112,-9.219369 0.98601,-3.643754 1.02097,-9.219388 -8.41152,-9.219388 -9.43249,0 -12.41512,5.575634 -13.40113,9.219388 z m 5.06014,0 c 0.73455,-2.714468 3.11779,-5.893564 7.44102,-5.893564 4.32323,0 4.98589,3.179096 4.25135,5.893564 -0.73454,2.714444 -3.11777,5.893543 -7.441,5.893543 -4.32322,0 -4.98591,-3.179099 -4.25137,-5.893543 z m -13.62175,2.820594 h 3.31611 L 181.46872,32.53631 h -3.29156 z m -2.63489,-5.94688 h 4.76537 l 4.72492,-17.460564 h -4.76538 z"
       id="path45498" />
    <path
       id="path45723"
       style="color:#000000;fill:#f5792a;fill-opacity:1;stroke:none;stroke-width:18.8977;stroke-linecap:round;stroke-linejoin:round;-inkscape-stroke:none;paint-order:markers stroke fill"
       d="m 267.36719,28.464844 c -1.18312,-0.03209 -2.23776,1.307415 -1.17969,2.951172 10.30741,26.89641 8.97345,64.105878 -6.95117,104.634764 -15.51421,39.48439 -48.66437,70.16595 -80.77149,88.31055 28.7144,-21.2507 53.34683,-50.44179 68.13477,-81.16992 C 276.77003,80.161922 257.54823,29.066148 203.66797,29.066406 166.31831,29.183405 121.93241,50.123651 85.820312,91.435547 83.411219,94.062039 83.810213,96.025036 87.078125,92.916016 124.96886,58.76967 164.93047,38.453557 198.13867,38.400391 c 31.17684,1.77e-4 47.94003,19.189308 48.4043,48.951171 C 239.42069,63.938863 219.96634,50.445101 195.37109,50.345703 145.50301,50.344717 71.283455,101.45429 45.230469,170.22656 c -17.115513,45.17996 -14.229126,86.18561 -0.1875,108.62305 1.056011,1.68744 3.744738,-0.23178 2.333984,-2.42383 C 36.417987,249.89222 36.920634,212.65055 54.328125,171.79492 70.941435,132.80326 102.92931,101.71101 135,83.556641 106.32729,104.80115 81.734067,133.95902 66.962891,164.65234 c -30.170429,63.0295 -10.948605,114.12528 42.931639,114.125 37.34958,-0.11696 81.73556,-21.0553 117.84766,-62.36718 2.40909,-2.62653 2.01193,-4.58947 -1.25586,-1.48047 -37.89078,34.14639 -77.85426,54.46246 -111.0625,54.51562 -31.242563,-1.1e-4 -48.035374,-19.25373 -48.431642,-49.12304 7.083235,23.5087 26.549483,37.07615 51.199222,37.17578 49.86804,9.8e-4 123.79085,-49.92779 150.14062,-118.58789 16.88382,-43.994434 14.70576,-85.665919 0.18555,-109.916019 -0.25536,-0.426765 -0.75601,-0.51863 -1.15039,-0.529297 z m -72.56055,46.013672 a 51.158113,93.710457 39.275527 0 1 22.32031,79.443364 51.158113,93.710457 39.275527 0 1 -98.37109,79.44335 51.158113,93.710457 39.275527 0 1 -22.320313,-79.44335 51.158113,93.710457 39.275527 0 1 98.371093,-79.443364 z"
       transform="scale(0.26458333)" />
    <path
       id="path45735"
       style="color:#000000;fill:#0d528a;fill-opacity:1;stroke:none;stroke-width:5;stroke-linecap:square;-inkscape-stroke:none;paint-order:markers stroke fill"
       d="M 51.083038,40.725255 A 8.1395353,14.909845 39.27553 0 1 35.431539,53.36509 8.1395353,14.909845 39.27553 0 1 31.880381,40.725255 8.1395353,14.909845 39.27553 0 1 47.53188,28.08542 8.1395353,14.909845 39.27553 0 1 51.083038,40.725255 Z m 41.440512,5.018721 v 3.351734 c -0.603893,-0.534866 -1.473084,-0.900203 -2.656168,-0.900203 -2.473534,0 -4.428154,1.710981 -4.428154,4.257622 0,1.360337 0.491323,2.423181 1.299146,3.126941 0.807823,0.70376 1.914986,1.046964 3.129008,1.046964 0.991761,0 1.941724,-0.300802 2.739884,-1.007692 v 0.73019 h 0.250114 2.625164 V 45.743976 Z m 35.21491,0.334349 v 2.310452 h -1.55288 v 2.142506 h 1.55288 v 3.521231 c 0,0.688793 0.0479,1.318213 0.46663,1.781286 0.41866,0.463074 1.14229,0.681612 2.33991,0.681612 0.57052,0 1.48809,-0.08371 1.95905,-0.14056 l 0.2186,-0.02739 v -2.130621 l -0.26769,0.01757 c -0.39163,0.02791 -0.76087,0.05684 -1.18339,0.05684 -0.29613,0 -0.42689,-0.05181 -0.47852,-0.101801 -0.0516,-0.05 -0.0956,-0.161515 -0.0956,-0.427882 v -3.230292 h 1.98437 V 48.38877 h -1.98437 v -2.310453 z m -47.597617,2.032949 c -1.017061,0 -2.078415,0.06031 -2.957441,0.439251 -0.879027,0.378939 -1.564124,1.11769 -1.72031,2.339909 l -0.03514,0.281636 h 2.837553 l 0.05891,-0.170016 c 0.162626,-0.479441 0.33587,-0.679466 0.579808,-0.796851 0.24394,-0.117383 0.607621,-0.146759 1.124998,-0.146759 0.695571,0 1.151072,0.07879 1.390613,0.195336 0.239537,0.116544 0.289388,0.216279 0.289388,0.44545 0,0.264205 -0.03707,0.332957 -0.117306,0.390673 -0.08024,0.05772 -0.292754,0.111522 -0.65836,0.138494 l -2.61121,0.181901 c -0.763376,0.04975 -1.570852,0.169296 -2.218984,0.538985 -0.648134,0.369689 -1.117245,1.026917 -1.117245,2.005563 0,0.935432 0.391882,1.643481 1.041281,2.072741 0.649396,0.42926 1.528035,0.599447 2.535245,0.599447 1.025536,0 2.379226,-0.249774 3.330027,-0.961183 0.03381,0.170738 0.05627,0.346437 0.10749,0.507981 l 0.05478,0.1757 h 3.027203 L 84.925566,55.99813 c -0.152707,-0.342204 -0.25735,-0.776872 -0.25735,-1.402498 v -3.701065 c 0,-0.741051 -0.222382,-1.480275 -0.920358,-1.990058 -0.697974,-0.509784 -1.819315,-0.793235 -3.607015,-0.793235 z m 30.630687,0 c -1.51488,0 -2.80636,0.302805 -3.73465,0.99994 -0.92829,0.697132 -1.4609,1.793206 -1.4609,3.257682 0,1.464475 0.53261,2.561067 1.4609,3.258199 0.92829,0.697134 2.21977,0.999939 3.73465,0.999939 1.15221,0 2.17988,-0.18765 3.02359,-0.617016 0.84372,-0.429368 1.49921,-1.108665 1.87689,-2.045353 l 0.13642,-0.341583 h -3.14451 l -0.0723,0.128675 c -0.29972,0.549259 -0.88402,0.843875 -1.82005,0.843875 -1.3898,0 -1.91836,-0.767339 -2.04122,-1.322398 h 7.09776 v -0.472323 c 0,-1.452041 -0.40839,-2.640793 -1.26349,-3.455085 -0.85509,-0.814295 -2.13023,-1.234552 -3.79305,-1.234552 z m 44.75748,0 c -1.51467,7.2e-5 -2.80596,0.302888 -3.73414,0.99994 -0.92828,0.697132 -1.46089,1.793208 -1.46089,3.257682 0,1.464475 0.53261,2.561067 1.46089,3.258199 0.92829,0.697134 2.21976,0.999939 3.73465,0.999939 1.15221,0 2.17936,-0.18765 3.02308,-0.617016 0.84371,-0.429368 1.4992,-1.108665 1.87688,-2.045353 l 0.13901,-0.341583 h -3.14658 l -0.0723,0.128675 c -0.29973,0.549262 -0.88453,0.843875 -1.82056,0.843875 -1.38981,0 -1.91785,-0.767339 -2.04071,-1.322398 h 7.09776 v -0.472323 c 0,-1.452041 -0.40891,-2.640793 -1.264,-3.455085 -0.85501,-0.814208 -2.12999,-1.234462 -3.79254,-1.234552 z m -33.22847,0.08423 c -1.25836,0 -2.21643,0.485638 -2.83755,1.056267 v -0.862997 h -2.87683 v 7.960755 h 2.959 v -3.85558 c 0,-0.742649 0.21739,-1.197647 0.5426,-1.486212 0.32521,-0.288566 0.78685,-0.419614 1.31826,-0.419614 0.51415,0 0.856,0.11516 1.06867,0.312127 0.21266,0.196963 0.33022,0.496022 0.33022,0.966864 v 4.482415 h 0.24959 2.7094 v -5.218803 c 0,-1.173086 -0.54444,-1.947455 -1.2485,-2.380735 -0.70408,-0.433279 -1.54713,-0.554487 -2.21486,-0.554487 z m 26.84384,0 c -0.7294,0 -1.30752,0.137713 -1.81022,0.433565 -0.35006,0.206026 -0.64984,0.572868 -0.95912,0.917773 v -1.158068 h -2.87527 v 7.960755 h 0.25011 2.70888 v -3.464904 c 0,-0.677844 0.18089,-1.174541 0.53123,-1.511536 0.35034,-0.336997 0.89721,-0.535368 1.69344,-0.535368 0.42593,0 0.84935,0.09026 1.28726,0.212907 l 0.31832,0.08992 v -2.83187 l -0.20102,-0.03927 c -0.30921,-0.06158 -0.65582,-0.0739 -0.94361,-0.0739 z m -53.630832,0.19327 3.667995,7.960755 h 0.160195 2.955372 l 3.66748,-7.960755 h -3.35742 l -1.86913,4.795057 -1.869142,-4.795057 z m 37.630782,0 v 5.302518 c 0,1.17308 0.54598,1.947452 1.25005,2.380734 0.70407,0.433279 1.54713,0.555005 2.21485,0.555005 1.25875,0 2.21702,-0.487984 2.83807,-1.058851 v 0.781349 h 0.25011 2.62465 v -7.960755 h -2.95899 v 3.980119 c 0,0.643274 -0.17155,1.098442 -0.47026,1.398882 -0.29871,0.300437 -0.74422,0.466637 -1.36167,0.466637 -0.52905,0 -0.878,-0.117644 -1.09348,-0.314708 -0.21547,-0.197067 -0.33228,-0.495509 -0.33228,-0.966351 v -4.564579 z m -22.42758,1.753897 c 0.8434,0 1.34668,0.282032 1.65624,0.599448 0.22417,0.229875 0.25175,0.416832 0.29868,0.583943 h -3.98425 c 0.003,-0.0067 0.003,-0.01066 0.006,-0.01757 0.0592,-0.141899 0.15729,-0.31994 0.30851,-0.491961 0.30245,-0.344043 0.80674,-0.67386 1.71462,-0.673862 z m 44.75799,0 c 0.84341,0 1.34669,0.282032 1.65624,0.599448 0.22417,0.229875 0.25175,0.416832 0.29869,0.583943 h -3.98426 c 0.003,-0.0067 0.003,-0.01066 0.006,-0.01757 0.0592,-0.141899 0.1578,-0.31994 0.30902,-0.491961 0.30245,-0.344043 0.80675,-0.67386 1.71463,-0.673862 z m -64.92213,0.36122 c 0.564862,0 1.081789,0.170153 1.451076,0.486275 0.369287,0.316124 0.60358,0.773443 0.60358,1.420069 0,0.646623 -0.234293,1.105495 -0.60358,1.421616 -0.369287,0.316125 -0.886214,0.486278 -1.451076,0.486278 -0.572405,0 -1.093697,-0.170156 -1.464508,-0.486278 -0.370814,-0.316118 -0.605647,-0.774993 -0.605647,-1.421616 0,-0.646626 0.234833,-1.103948 0.605647,-1.420069 0.370811,-0.316122 0.892103,-0.486275 1.464508,-0.486275 z m -8.761738,2.267561 v 0.306443 c 0,0.534236 -0.277235,0.909465 -0.726569,1.183904 -0.449334,0.274439 -1.068298,0.418063 -1.650029,0.418063 -0.427181,0 -0.769022,-0.0902 -0.984438,-0.230476 -0.215411,-0.140279 -0.316775,-0.307181 -0.316775,-0.562755 0,-0.279982 0.06629,-0.401193 0.219107,-0.507982 0.152818,-0.106786 0.437668,-0.183277 0.851627,-0.216524 v -0.0021 L 80.60955,53.03497 c 0.378291,-0.03234 0.783347,-0.135456 1.181322,-0.263552 z M 83.830024,28.55278 c -2.302806,0 -4.164293,0.319328 -5.509741,1.119309 -1.345446,0.799984 -2.115117,2.14031 -2.115117,3.871082 0,1.601158 0.718783,2.726372 1.746147,3.398242 1.027364,0.671875 2.317255,0.952555 3.589446,1.146701 l 3.561022,0.540536 c 0.758034,0.117658 1.323644,0.259234 1.624708,0.435631 0.301064,0.176398 0.388607,0.297699 0.388607,0.715204 0,0.45412 -0.165722,0.690176 -0.589629,0.917773 -0.42391,0.227595 -1.123291,0.365353 -1.990059,0.365353 -0.811921,0 -1.669827,-0.09445 -2.259811,-0.369488 -0.589984,-0.275037 -0.928963,-0.63113 -0.945679,-1.446941 l -0.0098,-0.488341 h -5.382617 l 0.0041,0.503843 c 0.02167,2.404962 1.350005,3.866812 3.052527,4.587836 1.70252,0.721024 3.768355,0.820621 5.540746,0.820621 2.891588,0 4.867544,-0.54097 6.154663,-1.505853 1.287118,-0.964879 1.812293,-2.360464 1.812293,-3.807002 0,-1.430668 -0.589278,-2.51783 -1.521355,-3.22254 -0.932076,-0.704712 -2.158727,-1.064014 -3.507795,-1.28106 l -4.892725,-0.781349 c -0.452541,-0.07212 -0.789184,-0.205798 -0.976683,-0.349848 -0.187505,-0.144049 -0.253733,-0.259823 -0.253733,-0.49971 0,-0.299794 0.141547,-0.55173 0.49816,-0.783415 0.356616,-0.231686 0.929381,-0.402043 1.659848,-0.402043 0.763765,0 1.550773,0.06049 2.107882,0.294556 0.557107,0.234058 0.899097,0.557461 0.999937,1.335836 l 0.05633,0.435631 h 5.300969 L 91.939601,33.57056 C 91.797245,31.367417 90.452487,30.026641 88.84005,29.347562 87.227613,28.668482 85.337871,28.55278 83.830019,28.55278 Z m 18.097606,0 c -3.963684,0 -6.377655,1.194938 -7.751985,2.838069 -1.374328,1.643131 -1.685168,3.659275 -1.685168,5.220353 0,1.561079 0.31084,3.577738 1.685168,5.22087 1.37433,1.643131 3.788301,2.838069 7.751985,2.838069 3.9637,0 6.37765,-1.194938 7.75198,-2.838069 1.37433,-1.643132 1.68568,-3.659791 1.68568,-5.22087 0,-1.561078 -0.31135,-3.577222 -1.68568,-5.220353 -1.37433,-1.643131 -3.78828,-2.838069 -7.75198,-2.838069 z m 44.04692,0 c -2.68852,0 -4.93742,0.573011 -6.53138,1.902209 -1.59396,1.329197 -2.46445,3.397324 -2.46445,6.156213 0,2.758893 0.87049,4.827016 2.46445,6.156212 1.59396,1.329197 3.84286,1.902727 6.53138,1.902727 2.34774,0 4.44305,-0.43828 6.04873,-1.462961 1.60568,-1.024678 2.6872,-2.662946 2.94349,-4.875154 l 0.0646,-0.556554 h -5.23275 l -0.0703,0.415994 c -0.17125,1.014344 -0.63906,1.667753 -1.27744,2.105297 -0.63839,0.437547 -1.46911,0.646473 -2.33578,0.646473 -1.72211,0 -2.64478,-0.626002 -3.22047,-1.468644 -0.57571,-0.84264 -0.76947,-1.958261 -0.76947,-2.86339 0,-0.905129 0.19376,-2.020752 0.76947,-2.863392 0.57569,-0.84264 1.49836,-1.468644 3.22047,-1.468644 0.93278,0 1.7646,0.235773 2.39055,0.677995 0.62594,0.442222 1.06221,1.081315 1.22267,1.995744 l 0.0723,0.414446 h 5.19142 l -0.0661,-0.560692 c -0.30876,-2.608558 -1.68991,-4.24321 -3.41426,-5.140769 -1.72435,-0.897562 -3.76342,-1.11311 -5.53713,-1.11311 z m -33.67598,0.400492 v 0.49971 14.8146 h 4.78369 v -9.087818 l 7.12876,9.087818 h 4.99039 v -15.31431 h -4.78368 v 9.048543 l -6.84145,-9.048543 z m 18.64072,0 v 0.49971 14.8146 h 4.90616 v -15.31431 z m -29.01166,3.325894 c 1.6489,0 2.67244,0.579112 3.33623,1.396815 0.66379,0.8177 0.95498,1.915922 0.95498,2.935221 0,1.019302 -0.29119,2.118035 -0.95498,2.935738 -0.66379,0.817702 -1.68733,1.396296 -3.33623,1.396296 -1.64889,0 -2.67193,-0.578594 -3.335716,-1.396296 -0.663787,-0.817703 -0.954982,-1.916436 -0.954982,-2.935738 0,-1.019299 0.291195,-2.117521 0.954982,-2.935221 0.663786,-0.817703 1.686826,-1.396815 3.335716,-1.396815 z" />
  </g>
</svg>
